<svg xmlns="http://www.w3.org/2000/svg" version="1.1" xmlns:xlink="http://www.w3.org/1999/xlink" xmlns:svgjs="http://svgjs.dev/svgjs" width="2000" height="1252" viewBox="0 0 2000 1252"><g transform="matrix(1,0,0,1,-1.2121212121212466,-2.01935483870966)"><svg viewBox="0 0 396 248" data-background-color="#ffffff" preserveAspectRatio="xMidYMid meet" height="1252" width="2000" xmlns="http://www.w3.org/2000/svg" xmlns:xlink="http://www.w3.org/1999/xlink"><g id="tight-bounds" transform="matrix(1,0,0,1,0.2400000000000091,0.4000000000000057)"><svg viewBox="0 0 395.52 247.2" height="247.2" width="395.52"><g><svg></svg></g><g><svg viewBox="0 0 395.52 247.2" height="247.2" width="395.52"><mask id="083fe5b8-4b48-4660-818f-0e51691bd640"><rect width="640" height="400" fill="white"></rect><g transform="matrix(1,0,0,1,132.70127925117004,37.08)"><svg viewBox="0 0 130.1174414976599 173.04" height="173.04" width="130.1174414976599"><g><svg viewBox="0 0 130.1174414976599 173.04" height="173.04" width="130.1174414976599"><g><svg viewBox="0 0 130.1174414976599 173.04" height="173.04" width="130.1174414976599"><g><svg viewBox="0 0 130.1174414976599 173.04" height="173.04" width="130.1174414976599"><g id="SvgjsG1100"><svg viewBox="0 0 130.1174414976599 173.04" height="173.04" width="130.1174414976599" id="SvgjsSvg1099"><g><svg viewBox="0 0 130.1174414976599 173.04" height="173.04" width="130.1174414976599"><g transform="matrix(1,0,0,1,0,0)"><svg width="130.1174414976599" viewBox="1.2000000000000002 -32.05 25.1 33.05" height="173.04" data-palette-color="#c9378b"><path d="M25.3-16.2L25.3-16.2Q25.3 0 12.5 0L12.5 0 2.2 0 2.2-31.05 12.7-31.05Q19.55-31.05 22.43-27.23 25.3-23.4 25.3-16.2ZM12.35-7.2Q15-7.2 15.78-9.08 16.55-10.95 16.55-15.38 16.55-19.8 15.73-21.65 14.9-23.5 12.2-23.5L12.2-23.5 10.7-23.5 10.7-7.2 12.35-7.2Z" opacity="1" transform="matrix(1,0,0,1,0,0)" fill="black" class="wordmark-text-0" id="SvgjsPath1098" stroke-width="1" stroke="black" stroke-linejoin="round"></path></svg></g></svg></g></svg></g></svg></g><g></g></svg></g></svg></g></svg></g></mask><g transform="matrix(1,0,0,1,132.70127925117004,37.08)"><svg viewBox="0 0 130.1174414976599 173.04" height="173.04" width="130.1174414976599"><g><svg viewBox="0 0 130.1174414976599 173.04" height="173.04" width="130.1174414976599"><g><svg viewBox="0 0 130.1174414976599 173.04" height="173.04" width="130.1174414976599"><g><svg viewBox="0 0 130.1174414976599 173.04" height="173.04" width="130.1174414976599"><g id="textblocktransform"><svg viewBox="0 0 130.1174414976599 173.04" height="173.04" width="130.1174414976599" id="textblock"><g><svg viewBox="0 0 130.1174414976599 173.04" height="173.04" width="130.1174414976599"><g transform="matrix(1,0,0,1,0,0)"><svg width="130.1174414976599" viewBox="1.2000000000000002 -32.05 25.1 33.05" height="173.04" data-palette-color="#c9378b"><path d="M25.3-16.2L25.3-16.2Q25.3 0 12.5 0L12.5 0 2.2 0 2.2-31.05 12.7-31.05Q19.55-31.05 22.43-27.23 25.3-23.4 25.3-16.2ZM12.35-7.2Q15-7.2 15.78-9.08 16.55-10.95 16.55-15.38 16.55-19.8 15.73-21.65 14.9-23.5 12.2-23.5L12.2-23.5 10.7-23.5 10.7-7.2 12.35-7.2Z" opacity="1" transform="matrix(1,0,0,1,0,0)" fill="#000000" class="wordmark-text-0" data-fill-palette-color="primary" id="text-0"></path></svg></g></svg></g></svg></g></svg></g><g></g></svg></g></svg></g></svg></g><g mask="url(#083fe5b8-4b48-4660-818f-0e51691bd640)"><g transform="matrix(2.7461802690412873, 0, 0, 2.7461802690412873, 75.16603184765192, 1)"><svg xmlns="http://www.w3.org/2000/svg" xmlns:xlink="http://www.w3.org/1999/xlink" version="1.1" x="0" y="0" viewBox="0.35833249999999595 0.3587183000000067 89.28326340000001 89.2876563" enable-background="new 0 0 90 90" xml:space="preserve" height="89.2876563" width="89.28326340000001" class="icon-none" data-fill-palette-color="accent" id="none"><polygon points="57.928,58.169 57.875,76.027 45.397,63.548 45.397,45.639 " fill="#000000" data-fill-palette-color="accent"></polygon><polygon points="76.027,57.875 58.475,57.927 45.826,45.279 63.432,45.279 " fill="#000000" data-fill-palette-color="accent"></polygon><polygon points="76.027,32.125 63.432,44.721 45.707,44.721 58.355,32.073 " fill="#000000" data-fill-palette-color="accent"></polygon><polygon points="44.838,45.59 44.838,63.314 32.125,76.027 32.074,58.355 " fill="#000000" data-fill-palette-color="accent"></polygon><polygon points="57.928,31.712 45.397,44.243 45.397,26.452 57.875,13.974 " fill="#000000" data-fill-palette-color="accent"></polygon><polygon points="44.838,26.687 44.838,44.291 32.074,31.526 32.125,13.974 " fill="#000000" data-fill-palette-color="accent"></polygon><polygon points="44.479,44.721 26.569,44.721 13.974,32.125 31.832,32.073 " fill="#000000" data-fill-palette-color="accent"></polygon><polygon points="44.36,45.279 31.712,57.927 13.974,57.875 26.569,45.279 " fill="#000000" data-fill-palette-color="accent"></polygon><rect x="58.48" y="58.48" width="18.049" height="18.049" fill="#000000" data-fill-palette-color="accent"></rect><polygon points="76.527,13.474 76.527,31.516 58.914,31.516 58.912,31.518 58.484,31.516 58.484,13.474 " fill="#000000" data-fill-palette-color="accent"></polygon><polygon points="31.518,30.971 31.516,31.516 13.474,31.516 13.474,13.474 31.516,13.474 31.516,30.968 " fill="#000000" data-fill-palette-color="accent"></polygon><rect x="13.471" y="58.48" width="18.05" height="18.049" fill="#000000" data-fill-palette-color="accent"></rect><rect x="67.864" y="35.981" transform="matrix(0.7071 -0.7071 0.7071 0.7071 -9.3022 67.5465)" width="18.042" height="18.042" fill="#000000" data-fill-palette-color="accent"></rect><rect x="35.979" y="4.094" transform="matrix(0.7071 -0.7071 0.7071 0.7071 3.9068 35.6621)" width="18.042" height="18.042" fill="#000000" data-fill-palette-color="accent"></rect><rect x="4.095" y="35.98" transform="matrix(0.7071 -0.7071 0.7071 0.7071 -27.9787 22.4536)" width="18.041" height="18.041" fill="#000000" data-fill-palette-color="accent"></rect><rect x="35.98" y="67.865" transform="matrix(0.7071 -0.7071 0.7071 0.7071 -41.1877 54.3437)" width="18.04" height="18.041" fill="#000000" data-fill-palette-color="accent"></rect></svg></g></g></svg></g><defs></defs></svg><rect width="395.52" height="247.2" fill="none" stroke="none" visibility="hidden"></rect></g></svg></g></svg>